# xmcd
#
# Track frame offsets: 
#        150
#        12495
#        25933
#        45993
#        57594
#        73704
#        84254
#        97234
#        106292
#        127203
#
# Disc length: 1833 seconds
#
# Revision: 1
# Processed by: cddbd v1.5.2PL0 Copyright (c) Steve Scherf et al.
# Submitted via: ExactAudioCopy v0.99pb5
#
DISCID=8807270a
DTITLE=Various Artist - Pure Jazz Moods - CD3
DYEAR=2005
DGENRE=Jazz
TTITLE0=Edith Piaf/La Vie En Rose
TTITLE1=Frank Sinatra/The Girl From Ipanema
TTITLE2=Roberta Flack/First Time Ever I Saw Your Face
TTITLE3=Louis Armstrong/Cabaret
TTITLE4=Carole King/Jazzman
TTITLE5=Bobby Darin/Lazy River
TTITLE6=Dionne Warwick/Walk On By
TTITLE7=Bill Withers/Ain't No Sunshine
TTITLE8=Andy Williams/Solitaire
TTITLE9=Benny Goodman and his Orchestra/These Foolish Things (remind me 
TTITLE9=of you)
EXTD=YEAR: 2005
EXTT0=
EXTT1=
EXTT2=
EXTT3=
EXTT4=
EXTT5=
EXTT6=
EXTT7=
EXTT8=
EXTT9=
PLAYORDER=
